<svg viewBox="0 0 16 16" class="logo" version="1.1" x="0px" y="0px"><g transform="translate(0,-1036.3622)"><g transform="translate(0,0.0198085)"><g transform="translate(1100.5659,-21.019708)"><g transform="translate(-116.0644,4.9999995)"><path style="text-indent:0;text-transform:none;direction:ltr;block-progression:tb;baseline-shift:baseline;color:#000000;enable-background:accumulate;" d="M 6.0351562,1 1,16.005859 l 6.0097656,0 0,-14.8457028 z m 4.9472658,0 -0.972656,0.1601562 0,14.8457028 6.007812,0 z m -2.9726564,0.00391 0,1 1,0 0,-1 z m 0,2 0,2 1,0 0,-2 z m 0,3 0,2 1,0 0,-2 z m 0,3 0,1.9999998 1,0 0,-1.9999998 z m 0,2.9999998 0,2 1,0 0,-2 z m 0,3 0,1 1,0 0,-1 z" transform="translate(-984.5015,1052.3621)" fill="#31B7E0" fill-opacity="1" fill-rule="evenodd" stroke="none" visibility="visible" display="inline" overflow="visible"/></g></g></g></g></svg>